<svg width="33" height="31" xmlns="http://www.w3.org/2000/svg" xmlns:xlink="http://www.w3.org/1999/xlink">
  <defs>
    <path d="M4 0h22a4 4 0 014 4v16l-4 1-5-3-5 1-4-3-5 1-4-3-3 1V4a4 4 0 014-4z" id="a"/>
    <path d="M4 13h22a4 4 0 004-4V6l-4 1-5-3-5 1-4-3-5 1-4-3-3 1v8a4 4 0 004 4z" id="c"/>
  </defs>
  <g fill="none" fill-rule="evenodd">
    <g transform="rotate(-3 35.094 -27.188)">
      <mask id="b" fill="#fff">
        <use xlink:href="#a"/>
      </mask>
      <path stroke="#494C4E" d="M26 .5c.966 0 1.841.392 2.475 1.025A3.489 3.489 0 0129.5 4h0v15.61l-3.42.855-4.989-2.993-4.97.994-4-3-5 1-4.03-3.023-2.591.863V4c0-.966.392-1.841 1.025-2.475A3.489 3.489 0 014 .5h0z"/>
      <path d="M26 2c1.103 0 2 .897 2 2v22c0 1.103-.897 2-2 2H4c-1.103 0-2-.897-2-2V4c0-1.103.897-2 2-2h22m0-2H4C1.8 0 0 1.8 0 4v22c0 2.2 1.8 4 4 4h22c2.2 0 4-1.8 4-4V4c0-2.2-1.8-4-4-4z" fill="#494C4E" fill-rule="nonzero" mask="url(#b)"/>
      <path d="M12 9l9 6-9 6V9m0-2a2 2 0 00-2 2v12a2 2 0 003.11 1.664l9-6a2 2 0 00-.001-3.328l-9-6A1.998 1.998 0 0012 7z" fill="#494C4E" fill-rule="nonzero" mask="url(#b)"/>
    </g>
    <g transform="translate(0 18)">
      <mask id="d" fill="#fff">
        <use xlink:href="#c"/>
      </mask>
      <path stroke="#494C4E" d="M2.91.557l3.969 2.977 5-1 4 3 5.03-1.006 5.011 3.007 3.58-.895V9c0 .966-.392 1.841-1.025 2.475A3.489 3.489 0 0126 12.5h0H4a3.489 3.489 0 01-2.475-1.025A3.489 3.489 0 01.5 9h0V1.36L2.91.557z"/>
      <path d="M26-15c1.103 0 2 .897 2 2V9c0 1.103-.897 2-2 2H4c-1.103 0-2-.897-2-2v-22c0-1.103.897-2 2-2h22m0-2H4c-2.2 0-4 1.8-4 4V9c0 2.2 1.8 4 4 4h22c2.2 0 4-1.8 4-4v-22c0-2.2-1.8-4-4-4z" fill="#494C4E" fill-rule="nonzero" mask="url(#d)"/>
      <path d="M12-8l9 6-9 6V-8m0-2a2 2 0 00-2 2V4a2 2 0 003.11 1.664l9-6a2 2 0 00-.001-3.328l-9-6A1.998 1.998 0 0012-10z" fill="#494C4E" fill-rule="nonzero" mask="url(#d)"/>
    </g>
  </g>
</svg>
